<?xml version="1.0" encoding="utf-8"?><svg version="1.1" id="Layer_1" xmlns="http://www.w3.org/2000/svg" xmlns:xlink="http://www.w3.org/1999/xlink" x="0px" y="0px" width="122.879px" height="101.018px" viewBox="0 0 122.879 101.018" enable-background="new 0 0 122.879 101.018" xml:space="preserve"><g><path d="M4.923,28.587h87.663c1.357,0,2.588,0.553,3.479,1.444c0.891,0.891,1.445,2.123,1.445,3.479v62.584 c0,1.356-0.553,2.589-1.445,3.479c-0.078,0.079-0.16,0.152-0.246,0.221c-0.867,0.761-1.998,1.223-3.232,1.223H4.923 c-1.356,0-2.588-0.553-3.479-1.443C0.553,98.684,0,97.451,0,96.095V33.51c0-1.357,0.553-2.588,1.444-3.479 C2.334,29.14,3.566,28.587,4.923,28.587L4.923,28.587z M32.734,5.852c-1.616,0-2.926-1.31-2.926-2.926 c0-1.615,1.31-2.926,2.926-2.926h87.221c1.615,0,2.924,1.311,2.924,2.926v61.476c0,1.616-1.309,2.926-2.924,2.926 c-1.617,0-2.926-1.31-2.926-2.926V5.852H32.734L32.734,5.852z M19.531,20.651c-1.616,0-2.925-1.31-2.925-2.926 s1.31-2.926,2.925-2.926h87.221c1.615,0,2.926,1.31,2.926,2.926v61.476c0,1.616-1.311,2.926-2.926,2.926s-2.926-1.31-2.926-2.926 v-58.55H19.531L19.531,20.651z M91.658,34.438H5.851v60.729h85.807V34.438L91.658,34.438z"/></g></svg>